<?xml version="1.0" standalone="no"?>
<!DOCTYPE svg PUBLIC "-//W3C//DTD SVG 20010904//EN"
 "http://www.w3.org/TR/2001/REC-SVG-20010904/DTD/svg10.dtd">
<svg version="1.0" xmlns="http://www.w3.org/2000/svg"
 width="700.000000pt" height="700.000000pt" viewBox="0 0 700.000000 700.000000"
 preserveAspectRatio="xMidYMid meet">
<metadata>
Created by potrace 1.11, written by Peter Selinger 2001-2013
</metadata>
<g transform="translate(0.000000,700.000000) scale(0.100000,-0.100000)"
fill="#000000" stroke="none">
<path d="M5390 6299 c-359 -30 -489 -47 -754 -99 -562 -110 -1111 -315 -1586
-590 -382 -221 -693 -462 -1021 -790 -506 -505 -890 -1096 -1184 -1820 -266
-654 -428 -1403 -452 -2092 l-6 -188 314 6 c173 4 427 9 564 13 l250 6 2 80
c4 126 22 369 39 505 144 1200 541 2200 1179 2969 228 275 516 550 789 754
755 563 1650 926 2885 1172 189 38 191 40 60 53 -306 32 -830 42 -1079 21z"/>
<path d="M5535 4874 c-309 -28 -616 -90 -907 -183 -474 -153 -879 -377 -1262
-700 -238 -200 -461 -449 -663 -738 -458 -657 -762 -1585 -775 -2371 l-3 -153
409 1 c225 0 412 3 416 5 4 2 10 64 13 137 26 529 167 1164 359 1618 344 814
940 1444 1743 1844 423 210 932 371 1602 507 35 7 60 16 55 19 -33 29 -718 38
-987 14z"/>
<path d="M5880 3759 c-313 -22 -654 -102 -920 -216 -237 -102 -470 -240 -644
-381 -98 -79 -315 -292 -380 -371 -425 -522 -692 -1233 -723 -1920 l-6 -144
214 7 c118 3 271 9 342 12 l127 7 0 61 c0 87 26 330 51 476 59 352 189 735
341 1005 127 225 254 393 432 570 303 301 721 543 1221 707 123 40 446 124
568 148 37 8 64 17 60 21 -27 24 -441 35 -683 18z"/>
<path d="M5980 2760 c-454 -26 -888 -217 -1196 -526 -358 -360 -571 -852 -611
-1413 l-6 -91 284 2 284 3 3 45 c4 83 33 304 54 410 72 379 284 770 541 998
258 230 549 378 965 493 81 22 156 44 167 48 12 5 -28 12 -110 20 -192 17
-237 19 -375 11z"/>
<path d="M5983 1966 c-360 -69 -650 -292 -820 -631 -82 -163 -131 -339 -140
-507 l-6 -98 221 0 221 0 5 43 c21 170 31 225 56 325 97 374 323 612 730 771
69 27 150 57 180 67 55 17 55 17 25 27 -53 16 -392 18 -472 3z"/>
<path d="M6260 1337 c-177 -25 -336 -147 -420 -321 -40 -82 -69 -190 -70 -253
l0 -33 155 -1 c85 -1 160 -2 167 -3 8 -1 16 29 23 79 17 118 40 185 86 254 53
79 112 128 231 194 l98 54 -43 13 c-61 19 -163 27 -227 17z"/>
</g>
</svg>
