<?xml version="1.0" encoding="utf-8"?>
<!-- Generator: Adobe Illustrator 20.1.0, SVG Export Plug-In . SVG Version: 6.00 Build 0)  -->
<svg version="1.1" id="Layer_1" xmlns="http://www.w3.org/2000/svg" xmlns:xlink="http://www.w3.org/1999/xlink" x="0px" y="0px"
	 viewBox="0 0 200 200" style="enable-background:new 0 0 200 200;" xml:space="preserve">
<style type="text/css">
	.st0{fill:#008C99;}
</style>
<g>
	<g>
		<path class="st0" d="M11.2,179.4c0,0,0-0.3,0-1c0-0.6,0-1.5,0-2.5c0-2.1,0.1-5.2,0.4-8.9c0.3-3.8,0.8-8.3,1.6-13.5
			c0.9-5.2,2-10.9,3.6-17.2c1.7-6.2,3.7-12.9,6.4-19.8c2.7-6.9,6-14,9.8-21.1c4-7,8.6-14.1,13.9-20.8c5.2-6.7,11.2-13,17.7-18.7
			c6.5-5.7,13.4-10.8,20.6-15.1c7.2-4.3,14.6-7.9,22-10.7c3.7-1.4,7.3-2.7,10.9-3.7c1.8-0.6,3.6-1,5.4-1.5c0.9-0.2,1.8-0.4,2.6-0.7
			c0.9-0.2,1.8-0.4,2.6-0.6c6.9-1.5,13.5-2.6,19.6-3.1c6.1-0.6,11.6-0.9,16.6-0.9c2.5,0,4.8,0,6.9,0.1c2.1,0,4.1,0.2,5.8,0.3
			c3.5,0.1,6.2,0.5,8.1,0.7c1.9,0.2,2.9,0.3,2.9,0.3s-1,0.2-2.8,0.6c-1.8,0.4-4.5,0.9-7.9,1.6c-3.4,0.7-7.5,1.7-12.1,2.8
			c-4.6,1.3-9.8,2.6-15.3,4.4c-2.8,0.9-5.6,1.9-8.5,3c-2.9,1.1-5.9,2.2-8.9,3.6c-0.8,0.3-1.5,0.7-2.3,1c-0.7,0.4-1.5,0.7-2.3,1.1
			c-1.5,0.7-3.1,1.4-4.6,2.2c-3,1.5-6.1,3.2-9.1,4.9c-6,3.5-12,7.6-17.6,12.1c-5.6,4.5-10.9,9.5-15.7,14.9c-2.4,2.7-4.7,5.5-6.9,8.3
			c-2.1,2.9-4.2,5.8-6.1,8.8c-3.8,5.9-7,12.1-9.8,18.3c-2.8,6.1-5.1,12.3-6.9,18.2c-1.8,5.9-3.3,11.6-4.4,16.9
			c-1.1,5.3-1.9,10.2-2.5,14.6c-0.6,4.4-1,8.2-1.2,11.3c-0.2,3.1-0.3,5.5-0.4,7.1c0,1.4,0,2.1,0,2.1L11.2,179.4z"/>
	</g>
	<g>
		<path class="st0" d="M54.9,179.3c0,0,0-0.2,0-0.6c0-0.2,0-0.5,0-0.9c0-0.3,0-0.7,0-1.1c0-1.6,0.1-3.9,0.3-6.7
			c0.2-2.8,0.6-6.2,1.2-10.1c0.7-3.9,1.4-8.2,2.7-12.8c0.6-2.3,1.3-4.7,2.1-7.2c0.4-1.2,0.8-2.5,1.3-3.8c0.4-1.3,0.9-2.6,1.4-3.8
			c0.5-1.3,1-2.6,1.6-3.9c0.6-1.3,1.2-2.6,1.8-3.9c0.3-0.7,0.6-1.3,0.9-2c0.3-0.7,0.7-1.3,1-2c0.7-1.3,1.4-2.6,2.1-4
			c0.8-1.3,1.6-2.6,2.3-3.9c0.4-0.7,0.8-1.3,1.2-2c0.4-0.6,0.9-1.3,1.3-1.9c0.9-1.3,1.7-2.6,2.7-3.9c1-1.3,1.9-2.5,2.9-3.8
			c0.5-0.6,1-1.3,1.5-1.9l1.6-1.8c1.1-1.2,2.1-2.4,3.2-3.6c1.1-1.1,2.3-2.3,3.4-3.4l1.7-1.7l1.8-1.6l3.7-3.1c1.2-1,2.6-1.9,3.8-2.9
			l1.9-1.4l1-0.7l1-0.6c1.3-0.8,2.7-1.7,4-2.5l2-1.2l2.1-1.1c1.4-0.7,2.7-1.4,4.1-2.1c1.3-0.7,2.8-1.3,4.1-1.9
			c1.4-0.6,2.8-1.1,4.1-1.7l1-0.4l1-0.3c0.7-0.2,1.4-0.5,2.1-0.7c1.4-0.4,2.7-0.9,4-1.3c2.7-0.9,5.4-1.4,7.9-2
			c2.6-0.7,5.1-1,7.6-1.4c2.4-0.4,4.8-0.8,7.1-0.9c2.3-0.2,4.4-0.4,6.5-0.5c0.5,0,1-0.1,1.5-0.1c0.5,0,1,0,1.5,0c1,0,1.9,0,2.9,0
			c1.8,0,3.6,0,5.1,0c0.4,0,0.8,0,1.2,0c0.4,0,0.8,0.1,1.1,0.1c0.7,0.1,1.4,0.1,2.1,0.1c5.2,0.4,8.2,0.7,8.2,0.7s-2.9,0.7-8,1.7
			c-2.5,0.4-5.6,1.3-9.1,2.1c-0.9,0.2-1.8,0.4-2.7,0.7c-0.9,0.2-1.9,0.5-2.8,0.8c-1.9,0.6-3.9,1.2-6,1.8c-2.1,0.6-4.2,1.5-6.4,2.2
			c-2.2,0.8-4.4,1.6-6.7,2.6c-1.1,0.5-2.2,1-3.4,1.5c-1.1,0.5-2.3,1-3.4,1.6c-1.1,0.6-2.3,1.2-3.4,1.8c-0.6,0.3-1.1,0.6-1.7,0.9
			l-0.9,0.5l-0.8,0.5c-1.1,0.7-2.2,1.4-3.3,2.1c-1.1,0.7-2.3,1.3-3.3,2.2c-1.1,0.8-2.2,1.6-3.3,2.3l-1.6,1.2l-1.6,1.3
			c-1,0.9-2.1,1.7-3.1,2.6l-0.8,0.6l-0.7,0.7l-1.5,1.4c-1,0.9-2,1.8-2.9,2.8l-2.7,3l-1.4,1.5l-1.3,1.6c-0.8,1-1.7,2.1-2.5,3.1
			c-0.8,1.1-1.5,2.2-2.3,3.3l-1.2,1.6c-0.4,0.5-0.7,1.1-1.1,1.7c-0.7,1.1-1.4,2.2-2.1,3.3c-0.7,1.1-1.3,2.3-1.9,3.4
			c-0.3,0.6-0.6,1.1-0.9,1.7c-0.3,0.6-0.6,1.2-0.8,1.7c-0.5,1.2-1.1,2.3-1.6,3.4c-0.5,1.2-1,2.3-1.5,3.5c-0.2,0.6-0.5,1.1-0.7,1.7
			c-0.2,0.6-0.4,1.2-0.6,1.7c-0.4,1.1-0.8,2.3-1.2,3.4c-0.4,1.1-0.7,2.3-1.1,3.4c-0.4,1.1-0.7,2.2-1,3.3c-0.3,1.1-0.6,2.1-0.9,3.2
			c-0.5,2.1-1,4.2-1.4,6.2c-0.8,4-1.4,7.7-1.9,10.9c-0.4,3.3-0.7,6.1-0.9,8.4c-0.2,2.3-0.3,4.1-0.3,5.3c0,0.5,0,0.9,0,1.2
			c0,0.3,0,0.5,0,0.5L54.9,179.3z"/>
	</g>
	<g>
		<path class="st0" d="M91.7,179.2c0,0,0-0.2,0-0.5c0-0.2,0-0.4,0-0.7c0-0.2,0-0.5,0-0.8c0-1.2,0.1-2.8,0.2-4.9
			c0.2-2.1,0.4-4.5,0.9-7.4c0.5-2.8,1.1-6,2-9.4c0.9-3.4,2-7,3.5-10.8c1.4-3.8,3.3-7.6,5.4-11.5c0.6-0.9,1.1-1.9,1.7-2.9
			c0.6-1,1.2-1.9,1.8-2.9c0.6-0.9,1.3-1.9,1.9-2.8c0.7-0.9,1.4-1.8,2.1-2.8c0.7-0.9,1.5-1.8,2.2-2.7c0.8-0.9,1.6-1.8,2.4-2.6
			l2.5-2.5l1.3-1.2l1.3-1.1l2.7-2.3c0.9-0.7,1.9-1.4,2.8-2.1c1.8-1.4,3.8-2.6,5.8-3.8l1.5-0.9l1.5-0.8c1-0.5,2-1,3-1.5
			c2-1,4.1-1.7,6-2.6c2-0.8,4-1.3,6-2c1.9-0.6,3.9-1,5.8-1.4c1.9-0.5,3.7-0.7,5.5-1c1.8-0.3,3.5-0.6,5.2-0.6
			c1.6-0.1,3.2-0.2,4.7-0.3c0.7-0.1,1.5-0.1,2.2-0.1c0.7,0,1.4,0,2.1,0c1.3,0,2.6,0,3.7,0c1.1,0,2.2,0.2,3.2,0.2
			c3.8,0.3,5.9,0.6,5.9,0.6s-2.1,0.5-5.8,1.3c-1.8,0.3-4,1-6.5,1.6c-1.2,0.4-2.6,0.6-4,1.1c-1.4,0.4-2.8,0.9-4.3,1.4
			c-1.5,0.4-3,1.1-4.6,1.7c-1.6,0.6-3.2,1.2-4.8,2c-0.8,0.4-1.6,0.8-2.4,1.1c-0.8,0.4-1.7,0.7-2.4,1.2c-0.8,0.4-1.6,0.9-2.4,1.3
			c-0.8,0.5-1.7,0.8-2.4,1.4c-0.8,0.5-1.6,1-2.4,1.5c-0.8,0.5-1.6,1-2.4,1.6c-0.8,0.6-1.5,1.1-2.3,1.7l-1.2,0.8l-1.1,0.9
			c-0.7,0.6-1.5,1.2-2.2,1.9c-0.4,0.3-0.7,0.6-1.1,1l-1,1c-0.7,0.7-1.4,1.3-2.1,2l-1.9,2.2l-1,1.1l-0.9,1.1l-1.8,2.3
			c-0.5,0.8-1.1,1.6-1.6,2.4c-0.6,0.8-1.1,1.5-1.6,2.4c-0.5,0.8-1,1.6-1.5,2.4c-0.5,0.8-0.9,1.6-1.3,2.5c-0.9,1.6-1.6,3.3-2.4,4.9
			c-1.4,3.3-2.7,6.6-3.6,9.8c-0.5,1.6-0.9,3.2-1.3,4.7c-0.4,1.5-0.7,3-1,4.4c-0.6,2.8-1,5.5-1.3,7.8c-0.3,2.3-0.5,4.4-0.6,6
			c-0.1,1.7-0.2,2.9-0.2,3.8c0,0.8,0,1.2,0,1.2L91.7,179.2z"/>
	</g>
	<g>
		<path class="st0" d="M119.2,179.2c0,0,0-0.1,0-0.3c0-0.2,0-0.6,0-1c0-0.8,0-1.9,0.2-3.4c0.1-1.4,0.3-3.1,0.6-5
			c0.3-1.9,0.7-4.1,1.4-6.4c0.6-2.3,1.4-4.8,2.4-7.3c1-2.6,2.3-5.2,3.8-7.8c1.6-2.6,3.3-5.2,5.3-7.7c1-1.3,2.1-2.4,3.2-3.6l1.7-1.7
			l0.9-0.8l0.9-0.8l1.9-1.5c0.6-0.5,1.3-0.9,1.9-1.4c1.3-1,2.6-1.7,4-2.5l1-0.6l1-0.5c0.7-0.3,1.4-0.7,2.1-1
			c1.4-0.7,2.8-1.1,4.1-1.7c1.4-0.5,2.7-0.8,4.1-1.3c1.3-0.4,2.7-0.6,3.9-0.9c1.3-0.3,2.5-0.4,3.7-0.6c1.2-0.2,2.4-0.3,3.5-0.3
			c1.1,0,2.2-0.1,3.2-0.1c1-0.1,2,0,2.9,0.1c0.9,0,1.7,0.1,2.5,0.1c0.8,0,1.5,0.2,2.1,0.2c2.5,0.3,4,0.5,4,0.5s-1.4,0.4-3.9,1
			c-1.2,0.3-2.7,0.7-4.3,1.2c-1.7,0.5-3.5,1.1-5.4,1.8c-1,0.3-2,0.8-3,1.2c-1,0.4-2.1,0.8-3.1,1.4c-0.5,0.3-1,0.5-1.6,0.8
			c-0.5,0.3-1.1,0.5-1.6,0.8c-1,0.6-2.1,1.2-3.2,1.9c-0.5,0.3-1,0.7-1.5,1c-0.5,0.4-1.1,0.7-1.5,1.1c-0.5,0.4-1,0.8-1.5,1.2L154,136
			l-0.7,0.6c-0.9,0.8-1.9,1.7-2.8,2.6c-0.4,0.5-0.9,0.9-1.3,1.3L148,142l-0.6,0.7l-0.6,0.8l-1.1,1.5l-1,1.6c-0.3,0.5-0.7,1-1,1.6
			c-1.3,2.1-2.3,4.3-3.3,6.4c-0.9,2.2-1.7,4.3-2.3,6.4c-0.6,2.1-1.1,4-1.4,5.9c-0.7,3.7-1,6.9-1.2,9c-0.1,1.1-0.1,1.9-0.1,2.4
			c0,0.5,0,0.7,0,0.7L119.2,179.2z"/>
	</g>
	<g>
		<path class="st0" d="M143.3,179.2c0,0,0-0.1,0-0.2c0-0.2,0-0.4,0-0.7c0-0.5,0-1.2,0.1-2.1c0.1-0.9,0.2-2,0.4-3.2
			c0.2-1.2,0.5-2.6,0.9-4c0.4-1.5,0.9-3,1.6-4.6c0.7-1.6,1.5-3.3,2.4-4.9c1-1.6,2.1-3.3,3.4-4.8c1.3-1.6,2.8-3,4.4-4.3l1.2-0.9
			c0.4-0.3,0.8-0.6,1.2-0.9c0.8-0.6,1.7-1.1,2.6-1.5c1.7-0.9,3.5-1.7,5.2-2.2c1.8-0.5,3.4-1,5.1-1.2c0.8-0.2,1.6-0.2,2.3-0.3
			c0.8-0.1,1.5-0.1,2.2-0.1c1.4,0,2.7,0,3.8,0.1c1.1,0.1,2.1,0.2,2.9,0.3c0.8,0.1,1.4,0.3,1.8,0.3c0.4,0.1,0.6,0.1,0.6,0.1
			s-0.2,0.1-0.6,0.2c-0.4,0.1-1,0.3-1.7,0.6c-0.7,0.2-1.6,0.6-2.6,0.9c-1,0.3-2.1,0.8-3.3,1.3c-0.6,0.2-1.2,0.5-1.8,0.8
			c-0.6,0.3-1.2,0.6-1.9,0.9c-0.6,0.4-1.3,0.7-1.9,1.1c-0.6,0.4-1.3,0.8-1.9,1.2c-0.6,0.5-1.2,0.9-1.8,1.3c-0.6,0.5-1.2,0.9-1.7,1.5
			c-0.5,0.5-1.1,1-1.6,1.6c-0.3,0.3-0.5,0.5-0.8,0.8l-0.7,0.9c-0.5,0.6-0.9,1.2-1.3,1.8c-0.4,0.6-0.8,1.2-1.1,1.9
			c-0.7,1.2-1.3,2.5-1.8,3.8c-0.5,1.3-0.9,2.5-1.2,3.8c-0.3,1.2-0.6,2.4-0.8,3.5c-0.4,2.2-0.6,4-0.7,5.3c0,0.6-0.1,1.1-0.1,1.4
			c0,0.2,0,0.4,0,0.4L143.3,179.2z"/>
	</g>
	<g>
		<path class="st0" d="M164.9,179.1C164.9,179.1,164.9,179.1,164.9,179.1c0-0.1,0-0.2,0-0.4c0-0.2,0-0.3,0-0.6c0-0.2,0-0.4,0-0.6
			c0-0.5,0.1-1,0.2-1.6c0.1-0.6,0.3-1.3,0.5-2c0.2-0.7,0.5-1.5,0.9-2.3c0.3-0.8,0.8-1.6,1.3-2.5c0.6-0.8,1.1-1.7,1.9-2.4
			c0.4-0.4,0.7-0.8,1.1-1.1l1.2-1c0.8-0.7,1.8-1.1,2.6-1.6c0.9-0.4,1.8-0.7,2.7-1c0.9-0.2,1.8-0.3,2.6-0.4c0.4-0.1,0.8,0,1.2,0
			c0.4,0,0.7,0,1.1,0.1c0.7,0,1.3,0.1,1.8,0.2c0.5,0.1,1,0.2,1.4,0.4c0.8,0.2,1.2,0.4,1.2,0.4s-0.4,0.2-1.1,0.6
			c-0.3,0.2-0.8,0.4-1.2,0.6c-0.5,0.2-1,0.5-1.5,0.8c-0.5,0.3-1.1,0.6-1.6,1c-0.5,0.4-1.1,0.8-1.6,1.2c-0.5,0.5-1,0.9-1.4,1.4
			c-0.2,0.3-0.4,0.5-0.6,0.8c-0.2,0.2-0.4,0.5-0.6,0.8l-0.5,0.8c-0.1,0.3-0.2,0.6-0.4,0.8c-0.3,0.5-0.4,1.1-0.6,1.6
			c-0.1,0.6-0.3,1.1-0.4,1.6c0,0.3-0.1,0.5-0.2,0.8c0,0.3-0.1,0.5-0.1,0.7c-0.1,0.5-0.1,0.9-0.2,1.3c0,0.4-0.1,0.7-0.1,1
			c0,0.2,0,0.4,0,0.5c0,0,0,0.1,0,0.2c0,0,0,0.1,0,0.1L164.9,179.1z"/>
	</g>
</g>
</svg>
